<svg xmlns="http://www.w3.org/2000/svg" xmlns:xlink="http://www.w3.org/1999/xlink" width="500" zoomAndPan="magnify" viewBox="0 0 375 374.999991" height="500" preserveAspectRatio="xMidYMid meet" version="1.0"><path fill="#0cc0df" d="M 364.984375 33.292969 C 370.125 37.660156 372.417969 44.523438 370.933594 51.105469 L 307.527344 332.066406 C 306.144531 338.195312 301.6875 343.167969 295.75 345.210938 C 289.816406 347.257812 283.242188 346.082031 278.382812 342.101562 L 195.523438 274.269531 L 160.765625 336.875 C 157.207031 343.285156 150.140625 346.917969 142.859375 346.082031 C 135.582031 345.246094 129.523438 340.101562 127.507812 333.054688 L 94.3125 216.796875 L 14.5625 200.835938 C 6.71875 199.265625 0.832031 192.734375 0.0820312 184.761719 C -0.667969 176.789062 3.894531 169.269531 11.308594 166.261719 L 346.453125 30.316406 C 352.703125 27.78125 359.84375 28.925781 364.984375 33.292969 Z M 80.921875 177.144531 L 112.25 183.414062 C 118.902344 184.746094 124.25 189.683594 126.113281 196.210938 L 150.332031 281.015625 L 174.382812 237.699219 C 176.988281 233.007812 181.542969 229.710938 186.816406 228.699219 C 192.085938 227.691406 197.535156 229.074219 201.691406 232.476562 L 278.640625 295.472656 L 327.957031 76.9375 Z M 80.921875 177.144531 " fill-opacity="1" fill-rule="evenodd"/><path fill="#0cc0df" d="M 362.914062 62.453125 C 370.855469 57.449219 373.664062 47.203125 369.382812 38.847656 C 365.101562 30.488281 355.152344 26.785156 346.453125 30.316406 L 11.308594 166.265625 C 3.894531 169.269531 -0.667969 176.789062 0.0820312 184.761719 C 0.832031 192.734375 6.71875 199.265625 14.5625 200.835938 L 105.144531 218.964844 C 109.695312 219.875 114.421875 219 118.347656 216.527344 Z M 362.914062 62.453125 " fill-opacity="1" fill-rule="evenodd"/><path fill="#0cc0df" d="M 370.933594 51.105469 C 372.78125 42.90625 368.753906 34.507812 361.203125 30.824219 C 353.652344 27.136719 344.5625 29.128906 339.242188 35.636719 L 176.199219 235.027344 C 169.859375 242.773438 171 254.195312 178.746094 260.535156 L 278.382812 342.105469 C 283.242188 346.082031 289.816406 347.257812 295.75 345.214844 C 301.6875 343.167969 306.144531 338.195312 307.527344 332.066406 Z M 370.933594 51.105469 " fill-opacity="1" fill-rule="evenodd"/></svg>