<svg xmlns="http://www.w3.org/2000/svg" xmlns:xlink="http://www.w3.org/1999/xlink" width="500" zoomAndPan="magnify" viewBox="0 0 375 374.999991" height="500" preserveAspectRatio="xMidYMid meet" version="1.0"><path fill="#0cc0df" d="M 187.5 0 C 83.929688 0 0 83.929688 0 187.5 C 0 291.070312 83.929688 375 187.5 375 C 291.070312 375 375 291.070312 375 187.5 C 374.835938 83.929688 290.910156 0 187.5 0 Z M 296.914062 145.292969 C 296.914062 145.292969 300.164062 217.046875 245.617188 261.527344 C 163.960938 327.921875 75.8125 274.027344 75.8125 274.027344 C 75.8125 274.027344 97.242188 274.351562 116.234375 269.316406 C 135.066406 264.285156 148.703125 251.949219 148.703125 251.949219 C 148.703125 251.949219 128.085938 247.726562 117.371094 239.933594 C 106.65625 232.144531 102.433594 217.207031 102.433594 217.207031 C 102.433594 217.207031 109.578125 217.855469 113.960938 217.695312 C 118.507812 217.53125 123.863281 215.421875 123.863281 215.421875 C 123.863281 215.421875 109.089844 213.636719 95.292969 198.214844 C 84.414062 186.039062 85.226562 165.746094 85.226562 165.746094 C 85.226562 165.746094 91.722656 169.644531 95.128906 170.453125 C 98.539062 171.429688 105.195312 171.429688 105.195312 171.429688 C 105.195312 171.429688 92.207031 163.796875 86.527344 143.832031 C 80.84375 124.027344 91.722656 103.894531 91.722656 103.894531 C 91.722656 103.894531 111.039062 127.273438 139.609375 142.207031 C 168.183594 157.144531 195.128906 156.65625 195.128906 156.65625 C 195.128906 156.65625 191.234375 144.804688 198.050781 127.273438 C 204.871094 109.742188 220.292969 97.078125 243.832031 95.292969 C 267.371094 93.34375 282.46875 111.203125 282.46875 111.203125 C 282.46875 111.203125 289.773438 109.902344 298.050781 106.816406 C 306.332031 103.894531 314.609375 100 314.609375 100 C 314.609375 100 311.6875 108.929688 306.007812 115.910156 C 300.324219 122.890625 293.992188 127.109375 293.992188 127.109375 C 293.992188 127.109375 301.460938 126.625 308.929688 124.511719 C 316.394531 122.402344 320.453125 120.292969 320.453125 120.292969 C 311.851562 134.578125 296.914062 145.292969 296.914062 145.292969 Z M 296.914062 145.292969 " fill-opacity="1" fill-rule="nonzero"/></svg>