<svg xmlns="http://www.w3.org/2000/svg" xmlns:xlink="http://www.w3.org/1999/xlink" width="500" zoomAndPan="magnify" viewBox="0 0 375 374.999991" height="500" preserveAspectRatio="xMidYMid meet" version="1.0"><path fill="#0cc0df" d="M 187.375 8.085938 C 88.519531 8.085938 8.085938 88.511719 8.085938 187.371094 C 8.089844 286.230469 88.515625 366.664062 187.375 366.664062 C 286.230469 366.664062 366.660156 286.230469 366.660156 187.371094 C 366.660156 88.511719 286.230469 8.085938 187.375 8.085938 Z M 187.375 374.851562 C 137.292969 374.851562 90.214844 355.347656 54.808594 319.9375 C 19.40625 284.527344 -0.0976562 237.449219 -0.0976562 187.375 C -0.0976562 137.296875 19.402344 90.21875 54.808594 54.8125 C 90.214844 19.402344 137.292969 -0.101562 187.375 -0.101562 C 237.445312 -0.101562 284.527344 19.402344 319.9375 54.8125 C 355.34375 90.21875 374.847656 137.296875 374.847656 187.375 C 374.847656 237.449219 355.34375 284.527344 319.9375 319.9375 C 284.527344 355.347656 237.445312 374.851562 187.375 374.851562 Z M 187.375 374.851562 " fill-opacity="1" fill-rule="evenodd"/><path fill="#0cc0df" d="M 330.199219 306.488281 C 329.507812 306.488281 328.808594 306.3125 328.167969 305.945312 C 293.730469 286.191406 242.410156 274.863281 187.375 274.863281 C 132.339844 274.863281 81.023438 286.191406 46.582031 305.945312 C 44.621094 307.070312 42.121094 306.394531 40.996094 304.433594 C 39.871094 302.472656 40.542969 299.96875 42.503906 298.84375 C 78.148438 278.402344 130.949219 266.675781 187.375 266.675781 C 243.800781 266.675781 296.601562 278.402344 332.234375 298.84375 C 334.199219 299.96875 334.878906 302.472656 333.753906 304.433594 C 332.996094 305.75 331.613281 306.488281 330.199219 306.488281 Z M 330.199219 306.488281 " fill-opacity="1" fill-rule="evenodd"/><path fill="#0cc0df" d="M 187.375 8.085938 C 162.253906 8.085938 138.4375 26.402344 120.316406 59.660156 C 101.769531 93.707031 91.554688 139.0625 91.554688 187.371094 C 91.554688 235.683594 101.769531 281.039062 120.316406 315.085938 C 138.4375 348.347656 162.253906 366.664062 187.375 366.664062 C 212.496094 366.664062 236.304688 348.347656 254.425781 315.085938 C 272.972656 281.039062 283.1875 235.683594 283.1875 187.371094 C 283.1875 139.0625 272.972656 93.707031 254.425781 59.660156 C 236.304688 26.402344 212.496094 8.085938 187.375 8.085938 Z M 187.375 374.851562 C 159.113281 374.851562 132.75 355.015625 113.128906 319 C 93.941406 283.773438 83.367188 237.027344 83.367188 187.375 C 83.367188 137.71875 93.941406 90.972656 113.128906 55.746094 C 132.75 19.734375 159.113281 -0.101562 187.375 -0.101562 C 215.625 -0.101562 241.992188 19.734375 261.613281 55.746094 C 280.808594 90.972656 291.371094 137.71875 291.371094 187.375 C 291.375 237.027344 280.808594 283.773438 261.613281 319 C 241.992188 355.015625 215.625 374.851562 187.375 374.851562 Z M 187.375 374.851562 " fill-opacity="1" fill-rule="evenodd"/><path fill="#0cc0df" d="M 187.375 374.847656 C 185.117188 374.847656 183.28125 373.015625 183.28125 370.753906 L 183.28125 3.988281 C 183.28125 1.730469 185.113281 -0.101562 187.375 -0.101562 C 189.632812 -0.101562 191.46875 1.730469 191.46875 3.992188 L 191.46875 370.753906 C 191.46875 373.011719 189.632812 374.847656 187.375 374.847656 Z M 187.375 374.847656 " fill-opacity="1" fill-rule="evenodd"/><path fill="#0cc0df" d="M 187.375 109.492188 C 130.457031 109.492188 77.363281 97.597656 41.703125 76.859375 C 39.75 75.722656 39.09375 73.21875 40.226562 71.265625 C 41.363281 69.308594 43.867188 68.648438 45.820312 69.785156 C 80.265625 89.816406 131.851562 101.304688 187.375 101.304688 C 242.886719 101.304688 294.484375 89.816406 328.925781 69.785156 C 330.878906 68.648438 333.378906 69.3125 334.519531 71.265625 C 335.65625 73.21875 334.988281 75.722656 333.035156 76.859375 C 297.386719 97.597656 244.292969 109.492188 187.375 109.492188 Z M 187.375 109.492188 " fill-opacity="1" fill-rule="evenodd"/><path fill="#0cc0df" d="M 370.753906 191.464844 L 3.996094 191.464844 C 1.734375 191.464844 -0.101562 189.632812 -0.101562 187.371094 C -0.101562 185.113281 1.734375 183.28125 3.992188 183.28125 L 370.75 183.277344 C 373.011719 183.277344 374.84375 185.113281 374.84375 187.371094 C 374.84375 189.632812 373.011719 191.464844 370.75 191.464844 Z M 370.753906 191.464844 " fill-opacity="1" fill-rule="evenodd"/></svg>